<?xml version="1.0" standalone="no"?>
<!DOCTYPE svg PUBLIC "-//W3C//DTD SVG 20010904//EN"
 "http://www.w3.org/TR/2001/REC-SVG-20010904/DTD/svg10.dtd">
<svg version="1.0" xmlns="http://www.w3.org/2000/svg"
 width="259.000000pt" height="259.000000pt" viewBox="0 0 259.000000 259.000000"
 preserveAspectRatio="xMidYMid meet">
<metadata>
Created by potrace 1.14, written by Peter Selinger 2001-2017
</metadata>
<g transform="translate(0.000000,259.000000) scale(0.100000,-0.100000)"
fill="#000000" stroke="none">
<path d="M847 2184 l-69 -46 4 -99 c2 -54 2 -99 1 -99 -1 0 -52 29 -113 65
l-111 65 -95 0 -94 0 0 -800 0 -800 94 0 94 0 89 51 c48 28 99 57 113 64 l25
13 -2 -75 c-1 -41 1 -81 4 -89 4 -11 40 -14 192 -14 l186 0 60 40 60 40 5 197
5 198 72 41 c58 33 81 41 120 40 l48 -1 3 -278 2 -277 190 0 190 0 65 41 65
41 -2 861 -3 862 -184 3 -184 2 -69 -41 -68 -41 0 -239 0 -239 -125 0 -125 0
0 280 0 280 -188 0 -187 0 -68 -46z m338 -9 c-36 -22 -51 -25 -141 -25 -84 0
-103 3 -108 16 -3 9 -4 20 0 25 3 5 69 9 147 9 l142 -1 -40 -24z m785 21 c0
-2 -15 -14 -34 -25 -28 -18 -49 -21 -140 -21 l-106 0 0 25 0 25 140 0 c77 0
140 -2 140 -4z m-1070 -31 c0 -9 -9 -15 -22 -15 -22 1 -23 1 -4 15 25 19 26
19 26 0z m356 -492 c-2 -3 -23 6 -45 19 l-41 23 0 207 0 207 43 25 42 26 3
-252 c1 -138 0 -253 -2 -255z m404 492 c0 -9 -9 -15 -22 -15 -22 1 -23 1 -4
15 25 19 26 19 26 0z m358 -812 l-3 -826 -25 -3 c-14 -1 -33 0 -42 3 -17 4
-18 51 -18 804 l0 799 38 24 c20 14 40 25 45 25 4 1 6 -371 5 -826z m-1168
757 c0 -5 5 -10 11 -10 5 0 8 4 5 8 -2 4 58 8 135 7 88 0 138 -4 136 -10 -4
-11 -165 -14 -207 -4 -14 3 -18 4 -10 1 12 -4 11 -6 -5 -12 -11 -4 35 -7 102
-6 l123 1 0 -174 c0 -161 -1 -173 -16 -155 -8 10 -12 13 -8 5 5 -9 3 -12 -5
-7 -6 4 -9 11 -6 16 3 4 -3 14 -12 21 -15 12 -16 12 -10 -3 5 -15 2 -15 -31 3
-20 12 -42 28 -50 38 -7 9 -10 10 -7 3 6 -11 3 -12 -12 -4 -15 8 -19 20 -17
52 1 22 -1 39 -3 36 -3 -3 -16 -1 -29 4 -18 7 -22 6 -17 -5 3 -8 0 -15 -6 -15
-6 0 -11 5 -11 12 0 6 -3 8 -7 4 -15 -14 28 -36 48 -25 24 12 25 1 2 -16 -13
-10 -22 -9 -45 4 -17 9 -26 22 -23 30 4 10 2 11 -7 3 -22 -18 -48 10 -47 49 1
32 2 32 9 9 6 -17 8 -2 9 53 1 48 -3 77 -10 77 -5 0 -7 5 -4 10 3 6 10 10 16
10 5 0 9 -4 9 -10z m736 1 c-3 -5 3 -11 14 -14 22 -6 28 8 8 16 -8 3 -5 6 5 6
12 1 17 -5 15 -16 -2 -11 -11 -17 -21 -15 -16 3 -17 -14 -17 -208 0 -139 -4
-210 -10 -210 -7 0 -10 75 -9 225 0 136 5 225 11 225 5 0 7 -4 4 -9z m286 -15
c16 -19 18 -51 17 -405 0 -212 -4 -380 -7 -375 -4 5 -23 17 -42 27 -19 9 -25
15 -14 12 l22 -6 1 326 c1 179 -2 325 -6 325 -4 0 -7 -126 -5 -280 2 -206 0
-280 -9 -280 -8 0 -8 -4 1 -15 7 -9 10 -19 6 -22 -4 -4 -11 -1 -16 7 -8 12
-12 12 -35 0 -15 -8 -22 -16 -16 -18 7 -2 17 1 24 7 10 7 18 5 30 -9 14 -17
14 -20 2 -20 -8 0 -15 5 -15 10 0 6 -4 10 -10 10 -5 0 -7 -7 -4 -15 5 -13 1
-12 -25 2 -17 10 -31 22 -31 26 0 5 -4 6 -9 3 -5 -3 -13 0 -19 7 -8 10 -6 13
9 13 10 0 19 -4 19 -8 0 -4 5 -8 10 -8 6 0 10 6 10 13 0 14 -53 17 -66 4 -13
-12 -108 59 -98 74 3 5 15 9 27 10 21 0 21 1 2 8 -12 5 -23 4 -27 -3 -4 -6
-10 -8 -13 -4 -3 3 0 12 7 19 16 18 19 49 4 43 -6 -2 -12 -12 -13 -22 -3 -35
-11 -57 -21 -55 -6 1 -32 16 -58 32 l-47 30 39 -3 c60 -5 86 8 78 39 -4 15 -2
25 5 25 6 0 11 -7 11 -15 0 -17 16 -20 25 -5 3 5 -5 15 -19 22 -31 14 -32 22
-6 48 20 20 21 32 20 208 -1 147 1 188 12 193 7 4 26 13 41 20 16 7 23 15 17
17 -7 3 -16 -2 -21 -9 -4 -7 -11 -10 -14 -7 -18 17 12 24 107 24 92 1 104 -1
120 -20z m18 14 c0 -5 -5 -10 -11 -10 -5 0 -7 5 -4 10 3 6 8 10 11 10 2 0 4
-4 4 -10z m-1063 -72 c-2 -13 -4 -5 -4 17 -1 22 1 32 4 23 2 -10 2 -28 0 -40z
m-287 -23 c0 -31 -5 -31 -55 0 l-40 24 48 1 c44 0 47 -2 47 -25z m-5 -64 c95
-56 223 -130 450 -261 55 -32 154 -89 220 -127 66 -38 204 -118 308 -178 103
-59 187 -111 187 -115 0 -5 -19 -19 -42 -32 -58 -33 -580 -334 -863 -498 -126
-73 -267 -155 -312 -181 l-83 -47 0 755 c0 715 1 755 18 749 9 -4 62 -33 117
-65z m253 -49 c103 -60 381 -221 619 -358 237 -137 429 -251 427 -253 -3 -3
-21 -6 -42 -6 -37 -2 -94 27 -417 216 -108 63 -340 196 -607 350 -186 106
-198 115 -198 142 0 22 4 28 15 23 9 -3 100 -54 203 -114z m162 4 c0 -2 -7 -7
-16 -10 -8 -3 -12 -2 -9 4 6 10 25 14 25 6z m590 -286 c0 -22 2 -22 -95 -23
-55 0 -78 4 -105 21 l-35 22 118 0 c110 0 117 -1 117 -20z m302 -371 c-6 -6
-181 -107 -762 -442 -96 -55 -243 -140 -326 -189 -190 -110 -184 -108 -184
-72 0 25 9 34 73 71 89 51 714 412 932 538 88 51 166 94 173 96 21 7 102 5 94
-2z m48 -365 c0 -194 -4 -324 -9 -324 -14 0 -24 -38 -14 -52 5 -9 10 -3 14 17
6 24 7 21 6 -17 -1 -52 -10 -53 -31 -5 l-14 32 1 -32 c1 -17 5 -29 8 -27 4 2
9 -2 12 -10 5 -12 -19 -13 -141 -11 l-147 3 -2 257 c-2 191 1 260 10 270 6 7
16 11 20 8 11 -6 5 30 -6 38 -4 3 -5 13 -1 22 7 19 41 22 64 6 12 -8 9 -9 -12
-5 -15 3 -29 3 -31 -1 -3 -5 19 -9 49 -9 44 -2 54 1 59 17 4 11 15 19 26 19
11 0 27 7 35 15 15 15 11 35 -7 35 -6 0 -7 -5 -3 -12 4 -6 3 -8 -4 -4 -6 3
-18 -2 -28 -11 -9 -10 -27 -23 -40 -29 -20 -11 -22 -10 -16 4 5 14 3 15 -10 4
-8 -7 -23 -9 -32 -6 -14 5 -11 10 16 27 18 11 47 22 63 23 45 3 45 3 39 17 -2
7 8 20 23 28 28 16 53 15 53 -2 0 -4 -7 -5 -17 -2 -11 5 -14 3 -8 -6 5 -10 2
-11 -13 -7 -12 4 -23 2 -28 -5 -4 -7 -3 -9 4 -6 17 11 42 -4 42 -24 0 -10 6
-19 13 -19 9 0 9 -2 -1 -9 -11 -7 -11 -9 2 -14 9 -4 15 -3 15 1 -3 20 2 25 12
12 8 -12 9 -10 7 10 -2 14 -8 24 -13 23 -6 0 -17 6 -25 15 -13 14 -13 15 1 10
12 -5 15 1 15 22 0 16 -4 26 -9 23 -6 -3 -7 -1 -4 4 4 6 18 11 32 11 l25 0 0
-324z m-140 258 c0 -5 -7 -9 -15 -9 -8 0 -12 4 -9 9 3 4 9 8 15 8 5 0 9 -4 9
-8z m-165 -111 c-1 -28 -15 -59 -15 -33 0 7 -12 12 -27 12 -21 0 -24 3 -14 9
8 5 21 7 29 3 11 -4 13 -1 7 7 -6 10 3 24 20 31 1 0 0 -13 0 -29z m-325 -333
l0 -173 -45 -1 -45 0 0 150 0 151 38 22 c20 12 40 22 45 23 4 0 7 -78 7 -172z
m-121 -70 l-3 -173 -123 -1 c-68 -1 -123 3 -123 8 0 4 53 9 118 10 113 2 114
2 37 7 -70 5 -80 8 -80 25 0 11 -6 20 -13 22 -7 1 -8 0 -2 -3 5 -2 10 -9 10
-14 0 -14 -37 -11 -44 4 -3 6 -3 2 0 -10 4 -18 1 -23 -15 -23 -12 0 -21 -6
-21 -13 0 -22 -47 -19 -53 3 -3 11 -1 18 4 14 5 -3 9 15 9 40 0 26 -5 46 -11
46 -6 0 -4 7 5 15 19 19 25 19 34 -2 6 -16 9 -16 32 6 24 23 24 23 2 12 -20
-11 -23 -10 -20 5 2 9 -4 19 -12 21 -13 4 -13 3 0 -6 13 -9 13 -11 -2 -11 -9
0 -25 -3 -35 -6 -12 -4 -8 3 11 20 16 14 33 23 37 20 5 -3 9 1 10 8 0 10 2 10
6 1 6 -16 30 -17 39 -1 5 8 2 9 -9 5 -22 -8 -22 2 -1 18 18 13 64 8 64 -6 0
-5 15 -9 33 -8 30 1 29 1 -18 19 -27 10 -42 19 -32 19 9 1 17 5 17 9 0 4 16
15 35 24 19 8 32 12 30 7 -3 -4 -1 -10 5 -14 5 -3 10 -2 10 4 0 6 8 8 18 4 14
-5 14 -3 -2 9 -19 15 -19 15 0 25 10 6 25 8 32 6 7 -3 12 -1 11 4 -2 13 1 23
7 23 3 0 4 -78 3 -172z m-312 -100 c-3 -7 -5 -2 -5 12 0 14 2 19 5 13 2 -7 2
-19 0 -25z m-287 -3 c0 -23 -3 -25 -47 -25 l-48 1 40 24 c50 31 55 31 55 0z
m664 -33 c2 -4 -4 -13 -15 -20 -15 -10 -19 -10 -19 1 0 24 23 36 34 19z m754
-9 c-6 -7 -14 -13 -19 -13 -5 0 -9 6 -9 13 0 7 9 13 19 13 15 0 17 -3 9 -13z"/>
<path d="M850 1991 c0 -17 5 -33 10 -36 6 -4 10 8 10 29 0 20 -4 36 -10 36 -5
0 -10 -13 -10 -29z"/>
<path d="M905 2010 c-4 -6 8 -10 29 -10 20 0 36 5 36 10 0 6 -13 10 -29 10
-17 0 -33 -4 -36 -10z"/>
<path d="M883 1950 c1 -22 6 -24 27 -10 13 9 13 11 0 20 -22 15 -29 12 -27
-10z"/>
<path d="M1020 1829 c0 -11 48 -31 60 -24 6 4 20 -1 31 -11 10 -9 19 -12 19
-6 0 6 -8 16 -17 21 -17 10 -17 10 0 11 10 0 15 4 12 10 -4 6 -17 4 -35 -5
-36 -19 -51 -19 -27 -1 16 12 15 14 -13 12 -16 0 -30 -3 -30 -7z"/>
<path d="M1711 2100 c-9 -5 -3 -9 16 -13 34 -6 37 -5 14 10 -10 6 -23 8 -30 3z"/>
<path d="M1770 2070 c0 -13 5 -18 15 -14 8 4 15 10 15 14 0 5 15 11 33 13 24
3 21 4 -15 5 -42 2 -48 -1 -48 -18z"/>
<path d="M1557 1549 c-9 -6 -27 -7 -40 -3 -12 3 -20 5 -17 3 3 -2 15 -12 26
-22 21 -17 22 -17 38 8 18 28 18 29 -7 14z"/>
<path d="M1655 1505 l-30 -14 30 4 30 5 -28 -11 c-21 -8 -32 -8 -45 3 -15 11
-15 11 -5 -2 6 -8 26 -24 45 -34 25 -15 30 -16 20 -4 -10 13 -10 17 3 22 9 3
13 2 10 -3 -3 -5 -2 -12 3 -15 4 -2 8 4 9 14 1 11 -3 22 -8 25 -5 4 -7 11 -4
16 8 11 6 11 -30 -6z"/>
<path d="M1861 1354 c0 -11 3 -14 6 -6 3 7 2 16 -1 19 -3 4 -6 -2 -5 -13z"/>
<path d="M540 1270 c0 -280 3 -510 8 -510 4 0 99 53 212 118 113 65 302 174
420 242 118 67 223 130 233 140 18 16 10 22 -160 120 -98 57 -225 131 -283
165 -257 150 -407 235 -418 235 -9 0 -12 -127 -12 -510z m148 401 c10 -6 13
-86 13 -395 0 -213 -3 -391 -6 -396 -5 -8 -110 -70 -120 -70 -3 0 -5 209 -5
465 l0 465 53 -30 c28 -17 58 -34 65 -39z"/>
<path d="M1844 800 c0 -129 2 -182 3 -117 2 64 2 170 0 235 -1 64 -3 11 -3
-118z"/>
<path d="M1595 967 c-3 -7 -4 -122 -3 -255 2 -133 1 -244 -2 -245 -3 -2 1 -2
8 0 8 1 64 3 125 4 66 1 102 4 87 8 -14 4 -24 13 -23 18 1 6 -4 14 -13 17 -12
4 -12 2 -4 -14 10 -19 7 -20 -75 -20 l-85 0 0 38 c-1 60 2 342 4 400 2 51 -9
78 -19 49z"/>
<path d="M1095 760 c-3 -5 -1 -10 4 -10 6 0 11 5 11 10 0 6 -2 10 -4 10 -3 0
-8 -4 -11 -10z"/>
<path d="M1110 729 c0 -5 5 -7 10 -4 6 3 10 8 10 11 0 2 -4 4 -10 4 -5 0 -10
-5 -10 -11z"/>
<path d="M1041 718 c0 -9 -7 -18 -13 -21 -7 -2 -10 -8 -5 -12 11 -13 29 11 24
31 -4 16 -5 16 -6 2z"/>
<path d="M1000 705 c-7 -8 -9 -15 -6 -15 4 0 14 7 22 15 9 8 11 15 6 15 -5 0
-15 -7 -22 -15z"/>
<path d="M953 657 c0 -7 18 -13 46 -14 43 -1 44 -1 11 6 -20 4 -40 10 -46 14
-6 3 -11 1 -11 -6z"/>
<path d="M858 534 c-17 -17 -8 -44 15 -44 13 0 17 3 11 8 -7 4 -13 15 -15 25
-2 11 -7 15 -11 11z"/>
</g>
</svg>
