<?xml version="1.0" standalone="no"?>
<!DOCTYPE svg PUBLIC "-//W3C//DTD SVG 20010904//EN"
 "http://www.w3.org/TR/2001/REC-SVG-20010904/DTD/svg10.dtd">
<svg version="1.0" xmlns="http://www.w3.org/2000/svg"
 width="112.000000pt" height="112.000000pt" viewBox="0 0 112.000000 112.000000"
 preserveAspectRatio="xMidYMid meet">
<metadata>
Created by potrace 1.14, written by Peter Selinger 2001-2017
</metadata>
<g transform="translate(0.000000,112.000000) scale(0.100000,-0.100000)"
fill="#000000" stroke="none">
<path d="M125 1104 c-48 -26 -94 -74 -107 -113 -8 -25 -12 -151 -13 -421 -1
-424 1 -442 58 -500 58 -60 58 -60 500 -60 398 0 403 0 447 23 26 13 57 40 75
65 l30 44 0 416 c0 403 -1 418 -21 457 -11 22 -40 54 -63 70 l-43 30 -416 2
c-366 2 -421 1 -447 -13z"/>
</g>
</svg>
